<svg width="113" height="24" viewBox="0 0 113 24" fill="none" xmlns="http://www.w3.org/2000/svg">
<path d="M0 18.5809V0.294537H1.72959L8.64797 10.26H7.68434L14.578 0.294537H16.3076V18.5809H14.3309V2.94545L14.9733 3.1909L8.20322 12.9354H8.10439L1.35897 3.1909L1.97668 2.94545V18.5809H0Z" fill="#141624"/>
<path d="M26.4118 18.8754C25.1764 18.8754 24.0563 18.5809 23.0515 17.9918C22.0631 17.3864 21.2807 16.56 20.7042 15.5127C20.1276 14.4654 19.8394 13.2791 19.8394 11.9536C19.8394 10.6282 20.1194 9.45817 20.6795 8.44363C21.2395 7.41272 21.9973 6.60272 22.9526 6.01363C23.9245 5.42454 25.0117 5.12999 26.2142 5.12999C27.1696 5.12999 28.0179 5.30999 28.7591 5.66999C29.5169 6.01363 30.1593 6.48817 30.6864 7.09363C31.2135 7.68272 31.6171 8.35363 31.8971 9.10636C32.1772 9.84272 32.3172 10.6036 32.3172 11.3891C32.3172 11.5527 32.3089 11.7409 32.2925 11.9536C32.276 12.15 32.2513 12.3545 32.2183 12.5673H21.0254V10.8491H31.1559L30.2664 11.5854C30.4146 10.6854 30.3075 9.88363 29.9452 9.17999C29.5992 8.45999 29.0968 7.89545 28.4379 7.48636C27.779 7.0609 27.0378 6.84817 26.2142 6.84817C25.3906 6.84817 24.6246 7.0609 23.9163 7.48636C23.2244 7.91181 22.6809 8.50908 22.2855 9.27817C21.8902 10.0309 21.7337 10.9309 21.8161 11.9782C21.7337 13.0254 21.8984 13.9418 22.3102 14.7273C22.7385 15.4964 23.315 16.0936 24.0398 16.5191C24.7811 16.9445 25.5717 17.1573 26.4118 17.1573C27.3837 17.1573 28.1991 16.9282 28.858 16.47C29.5169 16.0118 30.0522 15.4391 30.464 14.7518L32.0454 15.5864C31.7818 16.1754 31.3782 16.7236 30.8347 17.2309C30.2911 17.7218 29.6404 18.1227 28.8827 18.4336C28.1414 18.7282 27.3178 18.8754 26.4118 18.8754Z" fill="#141624"/>
<path d="M40.6497 18.7282C39.4637 18.7282 38.5495 18.3845 37.9071 17.6973C37.2647 17.01 36.9434 16.0282 36.9434 14.7518V7.26545H34.4973V5.42454H35.115C35.6751 5.42454 36.1198 5.24454 36.4493 4.88454C36.7787 4.50817 36.9434 4.04181 36.9434 3.48545V2.3809H38.7966V5.42454H41.7122V7.26545H38.7966V14.7518C38.7966 15.1936 38.8625 15.5864 38.9943 15.93C39.126 16.2573 39.3484 16.5191 39.6614 16.7154C39.9908 16.9118 40.4273 17.01 40.9709 17.01C41.1027 17.01 41.2592 17.0018 41.4404 16.9854C41.6216 16.9691 41.7781 16.9527 41.9099 16.9364V18.5809C41.7122 18.63 41.4898 18.6627 41.2427 18.6791C40.9956 18.7118 40.798 18.7282 40.6497 18.7282Z" fill="#141624"/>
<path d="M48.7524 18.8754C47.9123 18.8754 47.1628 18.72 46.5039 18.4091C45.845 18.0818 45.3261 17.64 44.9473 17.0836C44.5684 16.5273 44.379 15.8891 44.379 15.1691C44.379 14.4818 44.5272 13.86 44.8237 13.3036C45.1202 12.7309 45.5814 12.2482 46.2074 11.8554C46.8333 11.4627 47.6323 11.1845 48.6041 11.0209L53.7929 10.1618V11.8309L49.0489 12.6164C48.0935 12.78 47.4016 13.0827 46.9734 13.5245C46.5616 13.9664 46.3556 14.49 46.3556 15.0954C46.3556 15.6845 46.5863 16.1836 47.0475 16.5927C47.5252 17.0018 48.1347 17.2064 48.8759 17.2064C49.7819 17.2064 50.5726 17.0182 51.2479 16.6418C51.9233 16.2491 52.4504 15.7254 52.8293 15.0709C53.2081 14.4164 53.3976 13.6882 53.3976 12.8864V9.54817C53.3976 8.76272 53.1093 8.12454 52.5328 7.63363C51.9562 7.14272 51.2067 6.89727 50.2843 6.89727C49.4772 6.89727 48.7688 7.10181 48.1594 7.5109C47.5499 7.90363 47.0969 8.41908 46.8004 9.05727L45.1202 8.14908C45.3673 7.59272 45.7544 7.08545 46.2815 6.62727C46.8251 6.16908 47.4428 5.80908 48.1347 5.54727C48.8265 5.26908 49.543 5.12999 50.2843 5.12999C51.2562 5.12999 52.1127 5.31817 52.854 5.69454C53.6117 6.0709 54.1965 6.59454 54.6083 7.26545C55.0366 7.91999 55.2507 8.6809 55.2507 9.54817V18.5809H53.3976V15.9545L53.6694 16.2245C53.4387 16.7154 53.0764 17.1654 52.5822 17.5745C52.1045 17.9673 51.5362 18.2864 50.8773 18.5318C50.2349 18.7609 49.5266 18.8754 48.7524 18.8754Z" fill="#141624"/>
<path d="M60.4043 18.5809V0.294545H68.1875C69.4558 0.294545 70.543 0.507272 71.449 0.932727C72.355 1.35818 73.0468 1.97182 73.5245 2.77364C74.0022 3.55909 74.2411 4.51636 74.2411 5.64546C74.2411 6.44727 74.0187 7.21636 73.5739 7.95273C73.1292 8.67273 72.3962 9.27818 71.3749 9.76909V7.90364C72.3467 8.28 73.0962 8.73 73.6233 9.25364C74.1505 9.77727 74.5128 10.35 74.7105 10.9718C74.9082 11.5773 75.007 12.2155 75.007 12.8864C75.007 14.6864 74.4058 16.0855 73.2033 17.0836C72.0008 18.0818 70.3289 18.5809 68.1875 18.5809H60.4043ZM64.2341 15.2673H68.6322C69.4064 15.2673 70.0241 15.0464 70.4854 14.6045C70.9466 14.1627 71.1772 13.59 71.1772 12.8864C71.1772 12.1664 70.9466 11.5855 70.4854 11.1436C70.0241 10.7018 69.4064 10.4809 68.6322 10.4809H64.2341V15.2673ZM64.2341 7.16727H68.4593C69.0523 7.16727 69.5217 7.00364 69.8677 6.67636C70.23 6.33273 70.4112 5.88273 70.4112 5.32636C70.4112 4.77 70.23 4.32818 69.8677 4.00091C69.5217 3.65727 69.0523 3.48546 68.4593 3.48546H64.2341V7.16727Z" fill="#141624"/>
<path d="M77.192 18.5809V0H80.8983V18.5809H77.192Z" fill="#141624"/>
<path d="M90.3064 18.8755C88.9721 18.8755 87.7532 18.5727 86.6495 17.9673C85.5624 17.3618 84.6893 16.5355 84.0304 15.4882C83.388 14.4245 83.0668 13.2218 83.0668 11.88C83.0668 10.5218 83.388 9.31909 84.0304 8.27182C84.6893 7.22455 85.5624 6.39818 86.6495 5.79273C87.7532 5.18727 88.9721 4.88455 90.3064 4.88455C91.6407 4.88455 92.8514 5.18727 93.9385 5.79273C95.0257 6.39818 95.8905 7.22455 96.5329 8.27182C97.1918 9.31909 97.5213 10.5218 97.5213 11.88C97.5213 13.2218 97.1918 14.4245 96.5329 15.4882C95.8905 16.5355 95.0257 17.3618 93.9385 17.9673C92.8514 18.5727 91.6407 18.8755 90.3064 18.8755ZM90.3064 15.5618C90.9818 15.5618 91.5665 15.4064 92.0607 15.0955C92.5713 14.7845 92.9667 14.3509 93.2467 13.7945C93.5432 13.2382 93.6915 12.6 93.6915 11.88C93.6915 11.16 93.5432 10.53 93.2467 9.99C92.9667 9.43364 92.5713 9 92.0607 8.68909C91.5665 8.36182 90.9818 8.19818 90.3064 8.19818C89.631 8.19818 89.038 8.36182 88.5274 8.68909C88.0167 9 87.6132 9.43364 87.3167 9.99C87.0366 10.53 86.8966 11.16 86.8966 11.88C86.8966 12.6 87.0366 13.2382 87.3167 13.7945C87.6132 14.3509 88.0167 14.7845 88.5274 15.0955C89.038 15.4064 89.631 15.5618 90.3064 15.5618Z" fill="#141624"/>
<path d="M106.327 23.9809C105.289 23.9809 104.325 23.8091 103.436 23.4655C102.546 23.1218 101.78 22.6391 101.138 22.0173C100.512 21.4118 100.059 20.6918 99.7788 19.8573L103.213 18.6545C103.395 19.2764 103.765 19.7673 104.325 20.1273C104.885 20.4873 105.552 20.6673 106.327 20.6673C106.936 20.6673 107.463 20.5527 107.908 20.3236C108.353 20.1109 108.69 19.7918 108.921 19.3664C109.168 18.9409 109.292 18.4418 109.292 17.8691V14.8009L110.008 15.6845C109.547 16.4373 108.954 17.0018 108.229 17.3782C107.504 17.7382 106.656 17.9182 105.684 17.9182C104.432 17.9182 103.312 17.64 102.324 17.0836C101.335 16.5109 100.561 15.7336 100.001 14.7518C99.4411 13.7536 99.1611 12.6245 99.1611 11.3645C99.1611 10.1045 99.4411 8.99182 100.001 8.02636C100.561 7.04455 101.327 6.27545 102.299 5.71909C103.271 5.16273 104.375 4.88455 105.61 4.88455C106.582 4.88455 107.43 5.08091 108.155 5.47364C108.88 5.85 109.498 6.43091 110.008 7.21636L109.539 8.1V5.17909H112.998V17.8691C112.998 19.0473 112.71 20.0945 112.133 21.0109C111.557 21.9436 110.766 22.6718 109.761 23.1955C108.773 23.7191 107.628 23.9809 106.327 23.9809ZM106.203 14.58C106.829 14.58 107.373 14.4491 107.834 14.1873C108.295 13.9255 108.649 13.5573 108.896 13.0827C109.16 12.6082 109.292 12.0518 109.292 11.4136C109.292 10.7755 109.16 10.2191 108.896 9.74455C108.633 9.25364 108.27 8.87727 107.809 8.61546C107.348 8.33727 106.813 8.19818 106.203 8.19818C105.577 8.19818 105.017 8.33727 104.523 8.61546C104.045 8.87727 103.666 9.25364 103.386 9.74455C103.123 10.2191 102.991 10.7755 102.991 11.4136C102.991 12.0355 103.123 12.5836 103.386 13.0582C103.666 13.5327 104.045 13.9091 104.523 14.1873C105.017 14.4491 105.577 14.58 106.203 14.58Z" fill="#141624"/>
</svg>
